<?xml version="1.0" encoding="utf-8"?>
<!-- Generator: Adobe Illustrator 16.0.0, SVG Export Plug-In . SVG Version: 6.00 Build 0)  -->
<!DOCTYPE svg PUBLIC "-//W3C//DTD SVG 1.1//EN" "http://www.w3.org/Graphics/SVG/1.1/DTD/svg11.dtd">
<svg version="1.1" id="Layer_1" xmlns="http://www.w3.org/2000/svg" xmlns:xlink="http://www.w3.org/1999/xlink" x="0px" y="0px"
	 width="22.166px" height="22.166px" viewBox="42.126 -3.292 22.166 22.166" enable-background="new 42.126 -3.292 22.166 22.166"
	 xml:space="preserve">
<path d="M56.34,3.553l1.109,1.109c0.101,0.102,0.151,0.202,0.15,0.303c0.001,0.151-0.05,0.252-0.15,0.353l-2.476,2.474l2.475,2.474
	c0.101,0.101,0.151,0.202,0.151,0.354c0,0.101-0.051,0.202-0.151,0.302l-1.108,1.109c-0.104,0.102-0.204,0.151-0.304,0.151
	c-0.152,0-0.253-0.051-0.354-0.151l-2.475-2.474l-2.475,2.474c-0.101,0.101-0.201,0.151-0.353,0.151
	c-0.102,0-0.201-0.05-0.303-0.151l-1.109-1.108c-0.102-0.103-0.151-0.204-0.151-0.304c0-0.151,0.051-0.251,0.151-0.352l2.475-2.474
	l-2.475-2.475c-0.101-0.101-0.151-0.202-0.151-0.354c0-0.101,0.051-0.202,0.152-0.303l1.109-1.109
	c0.101-0.1,0.202-0.151,0.301-0.151c0.152,0,0.253,0.05,0.354,0.151l2.475,2.475l2.474-2.474c0.101-0.101,0.202-0.152,0.353-0.152
	C56.138,3.401,56.238,3.452,56.34,3.553z M58.741,2.26c-0.999-1-2.177-1.678-3.498-2.07c-1.356-0.357-2.713-0.357-4.069,0
	c-1.32,0.393-2.499,1.07-3.499,2.069c-0.998,1-1.677,2.178-2.069,3.499c-0.357,1.355-0.357,2.712,0,4.069
	c0.393,1.321,1.071,2.499,2.069,3.499c1.001,1,2.179,1.677,3.499,2.07c1.356,0.356,2.713,0.356,4.069,0
	c1.321-0.394,2.499-1.07,3.498-2.07s1.678-2.178,2.07-3.499c0.356-1.356,0.356-2.713,0-4.069C60.419,4.437,59.74,3.259,58.741,2.26z
	 M61.025-0.025c1.428,1.428,2.428,3.069,2.892,4.961c0.5,1.928,0.5,3.783,0,5.711c-0.464,1.892-1.463,3.534-2.891,4.961
	s-3.069,2.426-4.961,2.891c-1.929,0.499-3.784,0.5-5.712,0c-1.892-0.463-3.533-1.463-4.961-2.892
	c-1.428-1.428-2.427-3.069-2.892-4.961c-0.499-1.928-0.5-3.784,0-5.711c0.463-1.891,1.462-3.533,2.891-4.96
	c1.427-1.429,3.069-2.427,4.96-2.893c1.93-0.499,3.784-0.5,5.712,0C57.957-2.452,59.599-1.453,61.025-0.025z"/>
</svg>
