<svg xmlns="http://www.w3.org/2000/svg" version="1.1" id="Layer_1" x="0px" y="0px" width="98px" height="20px" viewBox="0 0 98 20" enable-background="new 0 0 98 20" xml:space="preserve"><path id="path-1" d="M97.02 19.41c-0.545 0-0.986-0.462-0.986-1.051 0-0.577 0.441-1.045 0.98-1.045h0.006c0.545 0 0.98 0.468 0.98 1.051S97.564 19.416 97.02 19.41zM90.439 19.41l-3.645-6.135v6.135h-3.977V1.003l3.977-0.668v11.851l3.645-5.827h4.311l-3.979 6.357 3.979 6.694H90.439zM75.893 19.559c-4.676 0-5.813-2.645-5.813-5.373v-2.633c0-2.728 1.138-5.374 5.813-5.374 4.668 0 5.787 2.646 5.787 5.374v2.633C81.68 16.914 80.561 19.559 75.893 19.559zM77.704 11.191c0-0.926-0.478-1.671-1.827-1.671s-1.818 0.745-1.818 1.671v3.383c0 0.929 0.469 1.675 1.818 1.675s1.827-0.746 1.827-1.675V11.191zM63.156 19.559c-4.674 0-5.811-2.645-5.811-5.373v-2.633c0-2.728 1.137-5.374 5.811-5.374 4.672 0 5.789 2.646 5.789 5.374v2.633C68.945 16.914 67.828 19.559 63.156 19.559zM64.965 11.191c0-0.926-0.473-1.671-1.822-1.671 -1.353 0-1.82 0.745-1.82 1.671v3.383c0 0.929 0.468 1.675 1.82 1.675 1.35 0 1.822-0.746 1.822-1.675V11.191zM49.876 19.585c-1.959 0-3.11-0.175-5.274-0.511V1.003l3.976-0.668v6.321c0.859-0.323 1.971-0.486 2.984-0.486 3.977 0 4.638 1.798 4.638 4.686v3.262C56.2 17.279 55.305 19.585 49.876 19.585zM52.225 11.191c0-0.926-0.306-1.671-1.658-1.671 -0.812 0-1.396 0.269-1.988 0.541v6.182c0.569 0.056 0.893 0.056 1.432 0.056 1.948 0 2.215-0.9 2.215-2.154V11.191zM35.98 14.325c0 1.526 0.539 1.924 2.321 1.924 1.603 0 2.58-0.078 4.639-0.437v3.262c-1.985 0.41-3.02 0.517-4.969 0.517 -4.27 0-5.968-2.264-5.968-5.536v-2.679c0-2.861 1.261-5.206 5.636-5.206s5.633 2.317 5.633 5.206v2.679H35.98V14.325zM39.296 11.376v-0.521c0-0.924-0.308-1.672-1.657-1.672 -1.351 0-1.659 0.748-1.659 1.672v0.521H39.296zM20.882 14.055v-2.343c0-3.274 1.697-5.542 5.967-5.542 0.994 0 2.171 0.109 3.978 0.518V9.95c-2.063-0.357-2.655-0.436-3.647-0.436 -1.783 0-2.321 0.398-2.321 1.923v2.888c0 1.526 0.538 1.924 2.321 1.924 0.992 0 1.584-0.078 3.647-0.437v3.262c-1.807 0.41-2.984 0.517-3.978 0.517C22.579 19.591 20.882 17.327 20.882 14.055zM16.099 18.59c-1.514 0.846-2.865 0.983-3.756 0.983 -2.431 0-3.725-1.638-3.725-3.902 0-2.672 1.51-3.625 4.211-3.625h2.749v-0.578c0-1.364-0.155-1.764-2.235-1.764H9.942l0.333-3.345h3.717c4.563 0 5.564 1.454 5.564 5.136v7.94h-3.314L16.099 18.59zM15.578 14.725h-1.775c-0.84 0-1.209 0.156-1.209 0.894 0 0.731 0.343 1.112 1.099 1.112 0.812 0 1.292-0.267 1.885-0.541V14.725zM8.618 9.704H5.964v9.706H1.988V9.704H0V6.359h1.988V4.351c0-2.729 1.122-4.352 4.309-4.352h2.654v3.345H7.293c-1.242 0-1.324 0.468-1.324 1.34L5.964 6.359H8.97L8.618 9.704z"/></svg>