<?xml version="1.0" encoding="utf-8"?>
<!-- Generator: Adobe Illustrator 16.0.0, SVG Export Plug-In . SVG Version: 6.00 Build 0)  -->
<!DOCTYPE svg PUBLIC "-//W3C//DTD SVG 1.1//EN" "http://www.w3.org/Graphics/SVG/1.1/DTD/svg11.dtd">
<svg version="1.1" id="Layer_1" xmlns="http://www.w3.org/2000/svg" xmlns:xlink="http://www.w3.org/1999/xlink" x="0px" y="0px"
	 width="105.12px" height="19px" viewBox="78.911 14.263 105.12 19" enable-background="new 78.911 14.263 105.12 19"
	 xml:space="preserve">
<g>
	<path d="M78.911,15.867h11.309v2.882h-8.018v4.485h6.521v2.855h-6.521v6.768h-3.291V15.867z"/>
	<path d="M98.056,31.415c-0.896,1.091-1.983,1.848-3.533,1.848c-2.256,0-3.888-1.546-3.888-3.534c0-2.307,1.686-4.266,7.421-4.454
		v-0.301c0-1.686-0.708-2.393-2.501-2.393c-1.275,0-2.826,0.573-4.158,1.334l-0.651-2.529c1.221-0.762,3.18-1.469,5.246-1.469
		c3.858,0,5.354,1.712,5.271,5.165v4.484c0,0.951,0.165,1.086,1.116,1.141l-0.246,2.42c-2.391,0.276-3.506-0.459-3.968-1.712H98.056
		z M98.056,26.957c-3.125,0.384-4.268,1.005-4.268,2.34c0,0.95,0.735,1.632,1.877,1.632c1.005,0,1.821-0.465,2.391-1.086V26.957
		L98.056,26.957z"/>
	<path d="M109.846,33.263c-4.077,0-6.497-2.523-6.497-6.63c0-4.079,2.667-6.716,6.605-6.716c1.715,0,3.182,0.381,4.322,1.062
		l-0.678,2.583c-1.032-0.654-2.229-1.007-3.398-1.007c-2.31,0-3.561,1.578-3.561,3.998c0,2.556,1.44,4.047,3.561,4.047
		c1.305,0,2.502-0.352,3.479-0.978l0.516,2.609C113.11,32.884,111.532,33.263,109.846,33.263z"/>
	<path d="M118.507,27.287c0.138,2.036,1.524,3.42,3.753,3.42c1.332,0,2.774-0.433,3.914-1.141l0.408,2.664
		c-1.197,0.653-2.853,1.032-4.539,1.032c-4.022,0-6.689-2.556-6.689-6.549c0-4.079,2.72-6.797,6.47-6.797
		c3.317,0,5.165,2.013,5.165,5.084c0,0.679-0.108,1.551-0.272,2.091c-0.027,0-8.208,0.108-8.208,0.108v0.087H118.507z
		 M123.972,25.298c0-0.051,0-0.188,0-0.216c0-1.686-0.735-2.745-2.391-2.745c-1.767,0-2.829,1.44-2.991,2.991L123.972,25.298z"/>
	<path d="M135.143,33.236c-0.815,0-1.985-0.162-2.802-0.433l-3.071,0.46V14.698l3.209-0.435c0,0,0,7.121,0,7.259
		c0.844-0.816,1.983-1.604,3.507-1.604c3.317,0,5.49,2.693,5.49,6.551C141.476,30.464,138.704,33.236,135.143,33.236z
		 M135.062,22.611c-1.062,0-1.877,0.405-2.583,1.032c0-0.081,0,6.335,0,6.335c0.598,0.459,1.413,0.702,2.361,0.702
		c2.15,0,3.372-1.739,3.372-4.074C138.213,24.158,137.046,22.611,135.062,22.611z"/>
	<path d="M149.332,33.263c-3.669,0-6.332-2.496-6.332-6.657c0-4.133,2.799-6.716,6.494-6.716c3.696,0,6.333,2.556,6.333,6.689
		C155.827,30.68,153.001,33.263,149.332,33.263z M149.386,22.473c-2.092,0-3.237,1.686-3.237,4.106c0,2.394,1.194,4.073,3.291,4.073
		c2.063,0,3.209-1.626,3.209-4.047C152.649,24.185,151.45,22.473,149.386,22.473z"/>
	<path d="M163.715,33.263c-3.668,0-6.332-2.496-6.332-6.657c0-4.133,2.799-6.716,6.5-6.716c3.695,0,6.332,2.556,6.332,6.689
		C170.215,30.68,167.389,33.263,163.715,33.263z M163.774,22.473c-2.096,0-3.236,1.686-3.236,4.106c0,2.394,1.194,4.073,3.291,4.073
		c2.063,0,3.204-1.626,3.204-4.047C167.033,24.185,165.839,22.473,163.774,22.473z"/>
	<path d="M175.635,26.823v6.035h-3.21v-18.16l3.21-0.435v11.636h0.054l4.484-5.574h3.831l-5.192,5.955l5.22,6.578H180.2
		l-4.512-6.035H175.635z"/>
</g>
</svg>
