<?xml version="1.0" encoding="utf-8"?>
<!-- Generator: Adobe Illustrator 16.0.0, SVG Export Plug-In . SVG Version: 6.00 Build 0)  -->
<!DOCTYPE svg PUBLIC "-//W3C//DTD SVG 1.1//EN" "http://www.w3.org/Graphics/SVG/1.1/DTD/svg11.dtd">
<svg version="1.1" id="Layer_1" xmlns="http://www.w3.org/2000/svg" xmlns:xlink="http://www.w3.org/1999/xlink" x="0px" y="0px"
	 width="76.561px" height="24px" viewBox="74.35 23.306 76.561 24" enable-background="new 74.35 23.306 76.561 24"
	 xml:space="preserve">
<g>
	<g>
		<path d="M125.465,30.3c0.539,0.446,1.663,1.382,1.663,3.164c0,1.732-0.984,2.553-1.969,3.325c-0.302,0.303-0.654,0.633-0.654,1.15
			c0,0.514,0.35,0.794,0.607,1.006l0.845,0.654c1.031,0.866,1.969,1.663,1.969,3.28c0,2.202-2.134,4.427-6.162,4.427
			c-3.396,0-5.034-1.617-5.034-3.349c0-0.845,0.418-2.038,1.804-2.86c1.448-0.891,3.418-1.006,4.474-1.077
			c-0.33-0.421-0.704-0.866-0.704-1.593c0-0.396,0.118-0.632,0.233-0.912c-0.258,0.021-0.514,0.047-0.75,0.047
			c-2.48,0-3.889-1.851-3.889-3.678c0-1.078,0.496-2.273,1.499-3.139c1.336-1.102,2.932-1.289,4.196-1.289h4.822l-1.499,0.843
			H125.465L125.465,30.3z M123.801,40.701c-0.187-0.024-0.305-0.024-0.535-0.024c-0.212,0-1.479,0.046-2.461,0.377
			c-0.515,0.184-2.016,0.747-2.016,2.411c0,1.663,1.616,2.859,4.124,2.859c2.246,0,3.442-1.081,3.442-2.532
			C126.356,42.596,125.583,41.966,123.801,40.701z M124.481,36.25c0.539-0.54,0.586-1.289,0.586-1.71c0-1.687-1.007-4.31-2.95-4.31
			c-0.611,0-1.266,0.304-1.643,0.772c-0.396,0.492-0.514,1.125-0.514,1.733c0,1.57,0.913,4.172,2.929,4.172
			C123.474,36.907,124.107,36.625,124.481,36.25z"/>
		<path d="M110.719,40.324c-3.718,0-5.706-2.9-5.706-5.519c0-3.064,2.501-5.682,6.058-5.682c3.438,0,5.587,2.688,5.587,5.519
			C116.659,37.403,114.531,40.324,110.719,40.324z M113.643,38.431c0.561-0.748,0.701-1.683,0.701-2.597
			c0-2.058-0.981-5.986-3.882-5.986c-0.771,0-1.543,0.304-2.104,0.796c-0.911,0.818-1.077,1.848-1.077,2.854
			c0,2.314,1.146,6.126,3.977,6.126C112.169,39.623,113.105,39.178,113.643,38.431z"/>
		<path d="M98.043,40.324c-3.718,0-5.707-2.9-5.707-5.519c0-3.064,2.503-5.682,6.059-5.682c3.437,0,5.587,2.688,5.587,5.519
			C103.984,37.403,101.856,40.324,98.043,40.324z M100.967,38.431c0.561-0.748,0.703-1.683,0.703-2.597
			c0-2.058-0.983-5.986-3.883-5.986c-0.771,0-1.543,0.304-2.104,0.796c-0.913,0.818-1.076,1.848-1.076,2.854
			c0,2.314,1.146,6.126,3.977,6.126C99.495,39.623,100.429,39.178,100.967,38.431z"/>
		<path d="M90.551,39.96l-3.363,0.775c-1.364,0.212-2.587,0.399-3.878,0.399c-6.491,0-8.959-4.774-8.959-8.513
			c0-4.561,3.503-8.792,9.5-8.792c1.27,0,2.492,0.187,3.597,0.492c1.763,0.494,2.585,1.106,3.104,1.458l-1.953,1.858l-0.822,0.187
			l0.587-0.94c-0.799-0.776-2.257-2.209-5.031-2.209c-3.715,0-6.514,2.823-6.514,6.936c0,4.419,3.199,8.581,8.324,8.581
			c1.506,0,2.281-0.305,2.986-0.589V35.82l-3.55,0.188l1.88-1.012h4.986l-0.61,0.589c-0.167,0.142-0.19,0.188-0.237,0.375
			c-0.023,0.212-0.047,0.894-0.047,1.128v2.872H90.551z"/>
		<path d="M132.898,39.281c-0.775-0.068-0.94-0.208-0.94-1.127v-0.259v-13.05c0.006-0.05,0.01-0.103,0.013-0.151
			c0.097-0.822,0.33-0.964,1.059-1.388h-3.361l-1.763,0.847h1.797v0.01l-0.003-0.008v13.74v0.775c0,0.471-0.094,0.542-0.632,1.246
			h4.161l0.87-0.517C133.699,39.353,133.297,39.327,132.898,39.281z"/>
		<path d="M142.465,39.499c-0.256,0.14-0.514,0.305-0.77,0.42c-0.772,0.35-1.563,0.442-2.268,0.442
			c-0.745,0-1.913-0.046-3.106-0.909c-1.654-1.168-2.38-3.178-2.38-4.928c0-3.619,2.944-5.393,5.349-5.393
			c0.842,0,1.704,0.208,2.405,0.654c1.165,0.769,1.471,1.772,1.633,2.31l-5.486,2.22l-1.798,0.14
			c0.583,2.966,2.589,4.691,4.811,4.691c1.189,0,2.053-0.42,2.847-0.815L142.465,39.499z M140.272,32.54
			c0.442-0.164,0.676-0.304,0.676-0.631c0-0.933-1.05-2.008-2.312-2.008c-0.938,0-2.685,0.724-2.685,3.246
			c0,0.397,0.046,0.816,0.071,1.238L140.272,32.54z"/>
	</g>
	<polygon points="150.911,33.194 150.911,33.873 148.191,33.873 148.191,36.592 147.512,36.592 147.512,33.873 144.792,33.873 
		144.792,33.194 147.512,33.194 147.512,30.474 148.191,30.474 148.191,33.194 	"/>
</g>
</svg>
