<svg xmlns="http://www.w3.org/2000/svg" version="1.1" id="Layer_1" x="0px" y="0px" width="1728px" height="767.957px" viewBox="0 511.953 1728 767.957" enable-background="new 0 511.953 1728 767.957" xml:space="preserve"><path d="M1728 893c0 9.333-3.334 17.333-10 24l-384 354c-10.667 9.333-22.333 11.333-35 6 -12.667-6-19-15.667-19-29v-224H32c-9.333 0-17-3-23-9s-9-13.667-9-23V800c0-9.333 3-17 9-23s13.667-9 23-9h1248V544c0-14 6.333-23.667 19-29s24.333-3.667 35 5l384 350C1724.666 876.667 1728 884.333 1728 893z"/></svg>