<?xml version="1.0" encoding="utf-8"?>
<!-- Generator: Adobe Illustrator 16.0.0, SVG Export Plug-In . SVG Version: 6.00 Build 0)  -->
<!DOCTYPE svg PUBLIC "-//W3C//DTD SVG 1.1//EN" "http://www.w3.org/Graphics/SVG/1.1/DTD/svg11.dtd">
<svg version="1.1" id="Layer_1" xmlns="http://www.w3.org/2000/svg" xmlns:xlink="http://www.w3.org/1999/xlink" x="0px" y="0px"
	 width="1408px" height="1536px" viewBox="192 128 1408 1536" enable-background="new 192 128 1408 1536" xml:space="preserve">
<path d="M1600,1405c0,80-24.333,143.167-73,189.5s-113.333,69.5-194,69.5H459c-80.667,0-145.333-23.167-194-69.5
	c-48.667-46.333-73-109.5-73-189.5c0-35.333,1.167-69.833,3.5-103.5s7-70,14-109s15.833-75.167,26.5-108.5s25-65.833,43-97.5
	s38.667-58.667,62-81s51.833-40.167,85.5-53.5s70.833-20,111.5-20c6,0,20,7.167,42,21.5s46.833,30.333,74.5,48s63.667,33.667,108,48
	S851.333,971,896,971s89.167-7.167,133.5-21.5s80.333-30.333,108-48s52.5-33.667,74.5-48s36-21.5,42-21.5
	c40.667,0,77.833,6.667,111.5,20s62.167,31.167,85.5,53.5s44,49.333,62,81s32.333,64.167,43,97.5s19.5,69.5,26.5,108.5
	s11.667,75.333,14,109S1600,1369.667,1600,1405z M1280,512c0,106-37.5,196.5-112.5,271.5S1002,896,896,896s-196.5-37.5-271.5-112.5
	S512,618,512,512s37.5-196.5,112.5-271.5S790,128,896,128s196.5,37.5,271.5,112.5S1280,406,1280,512z"/>
</svg>
