<svg xmlns="http://www.w3.org/2000/svg" version="1.1" id="Layer_1" x="0px" y="0px" width="1408.193px" height="1408px" viewBox="192.214 256 1408.193 1408" enable-background="new 192.214 256 1408.193 1408" xml:space="preserve"><path d="M1593 349L953 1629c-11.333 23.333-30.333 35-57 35 -3.333 0-8.333-0.667-15-2 -14.667-3.333-26.5-10.833-35.5-22.5S832 1614.667 832 1600v-576H256c-14.667 0-27.833-4.5-39.5-13.5S197.333 989.667 194 975s-2-28.667 4-42 15.667-23.333 29-30l1280-640c8.667-4.667 18.333-7 29-7 18 0 33 6.333 45 19 10 9.333 16.167 20.833 18.5 34.5C1601.833 323.167 1599.667 336.333 1593 349z"/></svg>
