<?xml version="1.0" encoding="utf-8"?>
<!-- Generator: Adobe Illustrator 16.0.0, SVG Export Plug-In . SVG Version: 6.00 Build 0)  -->
<!DOCTYPE svg PUBLIC "-//W3C//DTD SVG 1.1//EN" "http://www.w3.org/Graphics/SVG/1.1/DTD/svg11.dtd">
<svg version="1.1" id="Layer_1" xmlns="http://www.w3.org/2000/svg" xmlns:xlink="http://www.w3.org/1999/xlink" x="0px" y="0px"
	 width="22.1px" height="22.101px" viewBox="792.153 1012.768 22.1 22.101" enable-background="new 792.153 1012.768 22.1 22.101"
	 xml:space="preserve">
<path d="M812.773,1018.277c-0.99-1.699-2.33-3.04-4.021-4.029c-1.7-0.98-3.55-1.48-5.55-1.48s-3.851,0.5-5.55,1.48
	c-1.69,0.989-3.03,2.33-4.021,4.029c-0.99,1.69-1.479,3.54-1.479,5.54c0,2.011,0.489,3.86,1.479,5.55
	c0.99,1.69,2.33,3.03,4.021,4.021c1.699,0.99,3.55,1.48,5.55,1.48s3.85-0.49,5.55-1.48c1.69-0.99,3.03-2.33,4.021-4.021
	c0.989-1.689,1.479-3.539,1.479-5.55C814.253,1021.817,813.763,1019.968,812.773,1018.277z M809.983,1027.748
	c-0.7,1.199-1.65,2.149-2.851,2.85s-2.51,1.05-3.93,1.05s-2.73-0.35-3.93-1.05c-1.2-0.7-2.15-1.65-2.851-2.85
	c-0.7-1.2-1.05-2.511-1.05-3.931s0.35-2.729,1.05-3.92c0.7-1.2,1.65-2.149,2.851-2.85c1.199-0.7,2.51-1.05,3.93-1.05
	s2.729,0.35,3.93,1.05s2.15,1.649,2.851,2.85c0.699,1.19,1.05,2.5,1.05,3.92S810.683,1026.548,809.983,1027.748z M809.023,1020.895
	l-0.761-0.76c-0.18-0.18-0.399-0.27-0.649-0.27c-0.25-0.012-0.46,0.09-0.641,0.27l-4.67,4.66l-2.819-2.82
	c-0.181-0.18-0.4-0.27-0.65-0.27s-0.46,0.09-0.65,0.27l-0.76,0.76c-0.18,0.18-0.27,0.4-0.27,0.65s0.09,0.459,0.27,0.65l4.23,4.229
	c0.189,0.182,0.399,0.271,0.649,0.271s0.471-0.09,0.65-0.271l6.07-6.08c0.18-0.18,0.27-0.389,0.27-0.639
	S809.203,1021.074,809.023,1020.895z"/>
</svg>
