<?xml version="1.0" encoding="utf-8"?>
<!-- Generator: Adobe Illustrator 16.0.0, SVG Export Plug-In . SVG Version: 6.00 Build 0)  -->
<!DOCTYPE svg PUBLIC "-//W3C//DTD SVG 1.1//EN" "http://www.w3.org/Graphics/SVG/1.1/DTD/svg11.dtd">
<svg version="1.1" id="Layer_1" xmlns="http://www.w3.org/2000/svg" xmlns:xlink="http://www.w3.org/1999/xlink" x="0px" y="0px"
	 width="22.1px" height="22.101px" viewBox="759.486 859.768 22.1 22.101" enable-background="new 759.486 859.768 22.1 22.101"
	 xml:space="preserve">
<path d="M780.106,865.277c-0.99-1.699-2.33-3.04-4.021-4.029c-1.7-0.98-3.55-1.48-5.55-1.48s-3.851,0.5-5.55,1.48
	c-1.69,0.989-3.03,2.33-4.021,4.029c-0.99,1.69-1.479,3.54-1.479,5.54c0,2.011,0.489,3.86,1.479,5.55
	c0.99,1.69,2.33,3.03,4.021,4.021c1.699,0.99,3.55,1.48,5.55,1.48s3.85-0.49,5.55-1.48c1.69-0.99,3.03-2.33,4.021-4.021
	c0.989-1.689,1.479-3.539,1.479-5.55C781.586,868.817,781.096,866.968,780.106,865.277z M777.316,874.748
	c-0.7,1.199-1.65,2.149-2.851,2.85s-2.51,1.05-3.93,1.05s-2.73-0.35-3.93-1.05c-1.2-0.7-2.15-1.65-2.851-2.85
	c-0.7-1.2-1.05-2.511-1.05-3.931s0.35-2.729,1.05-3.92c0.7-1.2,1.65-2.149,2.851-2.85c1.199-0.7,2.51-1.05,3.93-1.05
	s2.729,0.35,3.93,1.05s2.15,1.649,2.851,2.85c0.699,1.19,1.05,2.5,1.05,3.92S778.016,873.548,777.316,874.748z"/>
<path d="M771.783,873.894v2.05c0,0.091-0.034,0.17-0.102,0.238c-0.068,0.069-0.148,0.103-0.24,0.103h-2.049
	c-0.093,0-0.172-0.033-0.24-0.103c-0.068-0.068-0.103-0.147-0.103-0.238v-2.05c0-0.091,0.034-0.172,0.103-0.24
	c0.068-0.068,0.147-0.103,0.24-0.103h2.049c0.092,0,0.172,0.034,0.24,0.103C771.749,873.722,771.783,873.803,771.783,873.894z
	 M774.483,868.767c0,0.308-0.044,0.596-0.133,0.864c-0.088,0.268-0.188,0.485-0.298,0.653c-0.111,0.168-0.269,0.338-0.471,0.508
	s-0.365,0.294-0.491,0.371c-0.125,0.078-0.299,0.178-0.521,0.304c-0.234,0.13-0.43,0.316-0.585,0.555
	c-0.157,0.24-0.236,0.43-0.236,0.572c0,0.097-0.034,0.19-0.101,0.278c-0.068,0.087-0.149,0.132-0.24,0.132h-2.05
	c-0.086,0-0.158-0.053-0.219-0.158c-0.06-0.105-0.09-0.212-0.09-0.32v-0.385c0-0.472,0.187-0.918,0.557-1.337
	c0.369-0.419,0.775-0.728,1.221-0.927c0.336-0.154,0.576-0.313,0.718-0.479c0.142-0.164,0.214-0.381,0.214-0.649
	c0-0.239-0.134-0.45-0.398-0.631c-0.264-0.183-0.57-0.274-0.917-0.274c-0.371,0-0.678,0.083-0.923,0.248
	c-0.199,0.142-0.505,0.469-0.915,0.982c-0.074,0.092-0.162,0.136-0.265,0.136c-0.067,0-0.139-0.021-0.214-0.068l-1.401-1.067
	c-0.073-0.057-0.116-0.128-0.132-0.214c-0.015-0.086,0.002-0.166,0.047-0.239c0.912-1.515,2.232-2.272,3.964-2.272
	c0.457,0,0.914,0.088,1.376,0.265c0.461,0.177,0.878,0.413,1.248,0.709c0.37,0.296,0.67,0.659,0.905,1.089
	C774.367,867.843,774.483,868.296,774.483,868.767z"/>
</svg>
