<?xml version="1.0" encoding="utf-8"?>
<!-- Generator: Adobe Illustrator 16.0.0, SVG Export Plug-In . SVG Version: 6.00 Build 0)  -->
<!DOCTYPE svg PUBLIC "-//W3C//DTD SVG 1.1//EN" "http://www.w3.org/Graphics/SVG/1.1/DTD/svg11.dtd">
<svg version="1.1" id="Layer_1" xmlns="http://www.w3.org/2000/svg" xmlns:xlink="http://www.w3.org/1999/xlink" x="0px" y="0px"
	 width="1536px" height="1536px" viewBox="128 128 1536 1536" enable-background="new 128 128 1536 1536" xml:space="preserve">
<path d="M1408,960V832c0-17.333-6.333-32.333-19-45s-27.667-19-45-19H448c-17.333,0-32.333,6.333-45,19s-19,27.667-19,45v128
	c0,17.333,6.333,32.333,19,45s27.667,19,45,19h896c17.333,0,32.333-6.333,45-19S1408,977.333,1408,960z M1664,416v960
	c0,79.333-28.167,147.167-84.5,203.5S1455.333,1664,1376,1664H416c-79.333,0-147.167-28.167-203.5-84.5S128,1455.333,128,1376V416
	c0-79.333,28.167-147.167,84.5-203.5S336.667,128,416,128h960c79.333,0,147.167,28.167,203.5,84.5S1664,336.667,1664,416z"/>
</svg>
