<?xml version="1.0" encoding="utf-8"?>
<!-- Generator: Adobe Illustrator 16.0.0, SVG Export Plug-In . SVG Version: 6.00 Build 0)  -->
<!DOCTYPE svg PUBLIC "-//W3C//DTD SVG 1.1//EN" "http://www.w3.org/Graphics/SVG/1.1/DTD/svg11.dtd">
<svg version="1.1" id="Layer_1" xmlns="http://www.w3.org/2000/svg" xmlns:xlink="http://www.w3.org/1999/xlink" x="0px" y="0px"
	 width="1536px" height="1536px" viewBox="0 28.99 1536 1536" enable-background="new 0 28.99 1536 1536" xml:space="preserve">
<path d="M1433,411.49c-68.67-117.67-161.83-210.83-279.5-279.5c-117.67-68.67-246.17-103-385.5-103s-267.83,34.33-385.5,103
	C264.83,200.66,171.67,293.82,103,411.49C34.33,529.16,0,657.66,0,796.99s34.33,267.83,103,385.5s161.83,210.83,279.5,279.5
	s246.17,103,385.5,103s267.83-34.33,385.5-103s210.83-161.83,279.5-279.5s103-246.17,103-385.5S1501.67,529.16,1433,411.49z
	 M1011,1103.99c12.67,12.67,19,27.67,19,45s-6.33,32.33-19,45l-102,102c-12.67,12.67-27.67,19-45,19s-32.33-6.33-45-19l-454-454
	c-12.67-12.67-19-27.67-19-45s6.33-32.33,19-45l454-454c12.67-12.67,27.67-19,45-19s32.33,6.33,45,19l102,102
	c12.67,12.67,19,27.67,19,45c0,17.33-6.33,32.33-19,45l-307,307L1011,1103.99z"/>
</svg>
