<?xml version="1.0" encoding="utf-8"?>
<!-- Generator: Adobe Illustrator 16.0.0, SVG Export Plug-In . SVG Version: 6.00 Build 0)  -->
<!DOCTYPE svg PUBLIC "-//W3C//DTD SVG 1.1//EN" "http://www.w3.org/Graphics/SVG/1.1/DTD/svg11.dtd">
<svg version="1.1" id="Layer_1" xmlns="http://www.w3.org/2000/svg" xmlns:xlink="http://www.w3.org/1999/xlink" x="0px" y="0px"
	 width="1536px" height="1536px" viewBox="128 128 1536 1536" enable-background="new 128 128 1536 1536" xml:space="preserve">
<path d="M845,1395l454-454c12.667-12.667,19-27.667,19-45s-6.333-32.333-19-45L845,397c-12.667-12.667-27.667-19-45-19
	s-32.333,6.333-45,19L653,499c-12.667,12.667-19,27.667-19,45s6.333,32.333,19,45l307,307l-307,307c-12.667,12.667-19,27.667-19,45
	s6.333,32.333,19,45l102,102c12.667,12.667,27.667,19,45,19S832.333,1407.667,845,1395z M1664,896
	c0,139.333-34.333,267.833-103,385.5s-161.833,210.833-279.5,279.5s-246.167,103-385.5,103s-267.833-34.333-385.5-103
	c-117.667-68.667-210.833-161.833-279.5-279.5S128,1035.333,128,896s34.333-267.833,103-385.5S392.833,299.667,510.5,231
	C628.167,162.333,756.667,128,896,128s267.833,34.333,385.5,103s210.833,161.833,279.5,279.5S1664,756.667,1664,896z"/>
</svg>
