<?xml version="1.0" encoding="utf-8"?>
<!-- Generator: Adobe Illustrator 16.0.0, SVG Export Plug-In . SVG Version: 6.00 Build 0)  -->
<!DOCTYPE svg PUBLIC "-//W3C//DTD SVG 1.1//EN" "http://www.w3.org/Graphics/SVG/1.1/DTD/svg11.dtd">
<svg version="1.1" id="Layer_1" xmlns="http://www.w3.org/2000/svg" xmlns:xlink="http://www.w3.org/1999/xlink" x="0px" y="0px"
	 width="1899px" height="1515px" viewBox="-64 128 1899 1515" enable-background="new -64 128 1899 1515" xml:space="preserve">
<path d="M384,448c0-35.333-12.5-65.5-37.5-90.5S291.333,320,256,320s-65.5,12.5-90.5,37.5S128,412.667,128,448s12.5,65.5,37.5,90.5
	S220.667,576,256,576s65.5-12.5,90.5-37.5S384,483.333,384,448z M1451,1024c0,35.333-12.333,65.333-37,90l-491,492
	c-26,24.667-56.333,37-91,37c-35.333,0-65.333-12.333-90-37L27,890c-25.333-24.667-46.833-58.333-64.5-101S-64,707.333-64,672V256
	c0-34.667,12.667-64.667,38-90s55.333-38,90-38h416c35.333,0,74.333,8.833,117,26.5s76.667,39.167,102,64.5l715,714
	C1438.667,959,1451,989.333,1451,1024z M1835,1024c0,35.333-12.333,65.333-37,90l-491,492c-26,24.667-56.333,37-91,37
	c-24,0-43.667-4.667-59-14s-33-24.333-53-45l470-470c24.667-24.667,37-54.667,37-90c0-34.667-12.333-65-37-91L859,219
	c-25.333-25.333-59.333-46.833-102-64.5S675.333,128,640,128h224c35.333,0,74.333,8.833,117,26.5s76.667,39.167,102,64.5l715,714
	C1822.667,959,1835,989.333,1835,1024z"/>
</svg>
