<svg version="1.1" id="Layer_1" xmlns="http://www.w3.org/2000/svg" xmlns:xlink="http://www.w3.org/1999/xlink" x="0px" y="0px"
	 width="1536px" height="1536px" viewBox="128 128 1536 1536" enable-background="new 128 128 1536 1536" xml:space="preserve">
<path d="M1024,1376v-192c0-9.333-3-17-9-23s-13.667-9-23-9H800c-9.333,0-17,3-23,9s-9,13.667-9,23v192c0,9.333,3,17,9,23
	s13.667,9,23,9h192c9.333,0,17-3,23-9S1024,1385.333,1024,1376z M1280,704c0-58.667-18.5-113-55.5-163s-83.167-88.667-138.5-116
	s-112-41-170-41c-162,0-285.667,71-371,213c-10,16-7.333,30,8,42l132,100c4.667,4,11,6,19,6c10.667,0,19-4,25-12
	c35.333-45.333,64-76,86-92c22.667-16,51.333-24,86-24c32,0,60.5,8.667,85.5,26s37.5,37,37.5,59c0,25.333-6.667,45.667-20,61
	s-36,30.333-68,45c-42,18.667-80.5,47.5-115.5,86.5S768,975.333,768,1020v36c0,9.333,3,17,9,23s13.667,9,23,9h192c9.333,0,17-3,23-9
	s9-13.667,9-23c0-12.667,7.167-29.167,21.5-49.5s32.5-36.833,54.5-49.5c21.333-12,37.667-21.5,49-28.5s26.667-18.667,46-35
	s34.167-32.333,44.5-48s19.667-35.833,28-60.5S1280,733.333,1280,704z M1664,896c0,139.333-34.333,267.833-103,385.5
	s-161.833,210.833-279.5,279.5s-246.167,103-385.5,103s-267.833-34.333-385.5-103S299.667,1399.167,231,1281.5S128,1035.333,128,896
	s34.333-267.833,103-385.5C299.667,392.833,392.833,299.667,510.5,231S756.667,128,896,128s267.833,34.333,385.5,103
	s210.833,161.833,279.5,279.5C1629.667,628.167,1664,756.667,1664,896z"/>
</svg>