<?xml version="1.0" encoding="utf-8"?>
<!-- Generator: Adobe Illustrator 16.0.0, SVG Export Plug-In . SVG Version: 6.00 Build 0)  -->
<!DOCTYPE svg PUBLIC "-//W3C//DTD SVG 1.1//EN" "http://www.w3.org/Graphics/SVG/1.1/DTD/svg11.dtd">
<svg version="1.1" id="Layer_1" xmlns="http://www.w3.org/2000/svg" xmlns:xlink="http://www.w3.org/1999/xlink" x="0px" y="0px"
	 width="1536px" height="1536px" viewBox="128 128 1536 1536" enable-background="new 128 128 1536 1536" xml:space="preserve">
<path d="M1299,813l-422,422c-12.667,12.667-27.667,19-45,19s-32.333-6.333-45-19L493,941c-12.667-12.667-19-27.667-19-45
	s6.333-32.333,19-45l102-102c12.667-12.667,27.667-19,45-19s32.333,6.333,45,19l147,147l275-275c12.667-12.667,27.667-19,45-19
	s32.333,6.333,45,19l102,102c12.667,12.667,19,27.667,19,45S1311.667,800.333,1299,813z M1440,896c0-98.667-24.333-189.667-73-273
	s-114.667-149.333-198-198s-174.333-73-273-73s-189.667,24.333-273,73S473.667,539.667,425,623c-48.667,83.333-73,174.333-73,273
	s24.333,189.667,73,273c48.667,83.333,114.667,149.333,198,198s174.333,73,273,73s189.667-24.333,273-73s149.333-114.667,198-198
	S1440,994.667,1440,896z M1664,896c0,139.333-34.333,267.833-103,385.5s-161.833,210.833-279.5,279.5s-246.167,103-385.5,103
	s-267.833-34.333-385.5-103c-117.667-68.667-210.833-161.833-279.5-279.5S128,1035.333,128,896s34.333-267.833,103-385.5
	S392.833,299.667,510.5,231C628.167,162.333,756.667,128,896,128s267.833,34.333,385.5,103s210.833,161.833,279.5,279.5
	S1664,756.667,1664,896z"/>
</svg>