<svg xmlns="http://www.w3.org/2000/svg" version="1.1" id="Layer_1" x="0px" y="0px" width="582px" height="998px" viewBox="1949 37 582 998" enable-background="new 1949 37 582 998" xml:space="preserve"><path d="M2531 536c0 8.667-3.333 16.333-10 23l-466 466c-6.667 6.667-14.333 10-23 10s-16.333-3.333-23-10l-50-50c-6.667-6.667-10-14.333-10-23s3.333-16.333 10-23l393-393 -393-393c-6.667-6.667-10-14.333-10-23s3.333-16.333 10-23l50-50c6.667-6.667 14.333-10 23-10s16.333 3.333 23 10l466 466C2527.667 519.667 2531 527.333 2531 536z"/></svg>
