<?xml version="1.0" encoding="utf-8"?>
<!-- Generator: Adobe Illustrator 16.0.0, SVG Export Plug-In . SVG Version: 6.00 Build 0)  -->
<!DOCTYPE svg PUBLIC "-//W3C//DTD SVG 1.1//EN" "http://www.w3.org/Graphics/SVG/1.1/DTD/svg11.dtd">
<svg version="1.1" id="Layer_1" xmlns="http://www.w3.org/2000/svg" xmlns:xlink="http://www.w3.org/1999/xlink" x="0px" y="0px"
	 width="1664px" height="1587px" viewBox="66 31 1664 1587" enable-background="new 66 31 1664 1587" xml:space="preserve">
<path class="full" d="M1730,646c0,14.667-8.666,30.667-26,48l-363,354l86,500c0.667,4.667,1,11.333,1,20c0,14-3.5,25.833-10.5,35.5
	s-17.167,14.5-30.5,14.5c-12.667,0-26-4-40-12l-449-236l-449,236c-14.667,8-28,12-40,12c-14,0-24.5-4.833-31.5-14.5
	S367,1582,367,1568c0-4,0.667-10.667,2-20l86-500L91,694c-16.667-18-25-34-25-48c0-24.667,18.667-40,56-46l502-73L849,72
	c12.667-27.333,29-41,49-41s36.333,13.667,49,41l225,455l502,73C1711.334,606,1730,621.333,1730,646z"/>
<path class="half" d="M898.03,31v1339.02L898,1370l-449,236c-14.67,8-28,12-40,12c-14,0-24.5-4.83-31.5-14.5S367,1582,367,1568
	c0-4,0.67-10.67,2-20l86-500L91,694c-16.67-18-25-34-25-48c0-24.67,18.67-40,56-46l502-73L849,72c12.67-27.33,29-41,49-41H898.03z"
	/>
<path class="outline" d="M1203,1003l306-297l-422-62L898,262L709,644l-422,62l306,297l-73,421l378-199l377,199L1203,1003z M1730,646
	c0,14.667-8.666,30.667-26,48l-363,354l86,500c0.667,4.667,1,11.333,1,20c0,33.333-13.667,50-41,50c-12.667,0-26-4-40-12l-449-236
	l-449,236c-14.667,8-28,12-40,12c-14,0-24.5-4.833-31.5-14.5S367,1582,367,1568c0-4,0.667-10.667,2-20l86-500L91,694
	c-16.667-18-25-34-25-48c0-24.667,18.667-40,56-46l502-73L849,72c12.667-27.333,29-41,49-41s36.333,13.667,49,41l225,455l502,73
	C1711.334,606,1730,621.333,1730,646z"/>
</svg>
