<svg xmlns="http://www.w3.org/2000/svg" version="1.1" id="Layer_1" x="0px" y="0px" width="20.531px" height="20.531px" viewBox="37.734 2.734 20.531 20.531" enable-background="new 37.734 2.734 20.531 20.531" xml:space="preserve"><path d="M52.406 15.438l-1.969 1.969c-0.094 0.094-0.188 0.141-0.281 0.141 -0.141 0-0.234-0.047-0.328-0.141L48 15.578l-1.828 1.828c-0.094 0.094-0.188 0.141-0.328 0.141 -0.094 0-0.188-0.047-0.281-0.141l-1.969-1.969c-0.094-0.094-0.141-0.188-0.141-0.281 0-0.141 0.047-0.234 0.141-0.328L45.422 13l-1.828-1.828c-0.094-0.094-0.141-0.188-0.141-0.328 0-0.094 0.047-0.188 0.141-0.281l1.969-1.969c0.094-0.094 0.188-0.141 0.281-0.141 0.141 0 0.234 0.047 0.328 0.141L48 10.422l1.828-1.828c0.094-0.094 0.188-0.141 0.328-0.141 0.094 0 0.188 0.047 0.281 0.141l1.969 1.969c0.094 0.094 0.141 0.188 0.141 0.281 0 0.141-0.047 0.234-0.141 0.328L50.578 13l1.828 1.828c0.094 0.094 0.141 0.188 0.141 0.328C52.547 15.25 52.5 15.344 52.406 15.438zM55.266 13c0-1.313-0.328-2.531-0.938-3.656 -0.656-1.125-1.547-2.016-2.672-2.672C50.531 6.063 49.313 5.734 48 5.734s-2.531 0.328-3.656 0.938c-1.125 0.656-2.016 1.547-2.672 2.672 -0.609 1.125-0.938 2.344-0.938 3.656s0.328 2.531 0.938 3.656c0.656 1.125 1.547 2.016 2.672 2.672 1.125 0.609 2.344 0.938 3.656 0.938s2.531-0.328 3.656-0.938c1.125-0.656 2.016-1.547 2.672-2.672C54.938 15.531 55.266 14.313 55.266 13zM58.266 13c0 1.875-0.422 3.609-1.359 5.156 -0.938 1.594-2.156 2.813-3.75 3.75 -1.547 0.938-3.281 1.359-5.156 1.359s-3.609-0.422-5.156-1.359c-1.594-0.938-2.813-2.156-3.75-3.75 -0.938-1.547-1.359-3.281-1.359-5.156s0.422-3.609 1.359-5.156c0.938-1.594 2.156-2.813 3.75-3.75C44.391 3.156 46.125 2.734 48 2.734s3.609 0.422 5.156 1.359c1.594 0.938 2.813 2.156 3.75 3.75C57.844 9.391 58.266 11.125 58.266 13z"/></svg>